<svg xmlns="http://www.w3.org/2000/svg" xmlns:xlink="http://www.w3.org/1999/xlink" viewBox="0 0 73 103" height="103" width="73"><defs><path id="a" d="M7 0h960v560H7z"/><clipPath id="b"><use height="100%" width="100%" xlink:href="#a" overflow="visible"/></clipPath></defs><path clip-path="url(#b)" transform="translate(-132.81 -48.555) scale(.36668)" fill="#fff" d="M499.128 174.976L546 163.974l-46.806 20.565"/><path d="M499.999 186.37l-1.609-3.662 26.898-11.818-25.703 6.033-.914-3.895 46.872-11.002a2 2 0 1 1 1.262 3.779l-46.806 20.565zM448.756 275.962a1.99 1.99 0 0 1-.855-.193l-31.393-14.879a2.002 2.002 0 0 1-.595-3.183l24.539-25.904a2 2 0 0 1 2.904 2.751l-22.643 23.902 28.901 13.698a2 2 0 0 1-.858 3.808" clip-path="url(#b)" transform="translate(-132.81 -48.555) scale(.36668)" fill="#3e3e3e"/><path d="M452.478 283.815c-.491 0-.983-.18-1.37-.543l-25.5-23.972a2 2 0 0 1-.082-2.833l24.538-25.904a2.001 2.001 0 0 1 2.905 2.751l-23.159 24.447 24.038 22.597a2.001 2.001 0 0 1-1.37 3.457M417.095 168.307c-12.867-9.998-24.877-16.07-24.877-16.07s8.85 10.138 21.717 20.136c12.867 9.998 24.005 17.193 24.878 16.07.872-1.123-8.852-10.138-21.718-20.136" clip-path="url(#b)" transform="translate(-132.81 -48.555) scale(.36668)" fill="#3e3e3e"/><path d="M438.607 191.567c-2.225 0-5.283-1.833-9.363-4.469-4.771-3.081-10.86-7.469-17.15-12.356-12.946-10.061-21.767-20.11-22.136-20.532a3 3 0 0 1 3.613-4.651c.501.254 12.417 6.318 25.365 16.378 6.289 4.888 12.046 9.705 16.21 13.566 5.211 4.833 8.219 7.969 6.035 10.78-.691.89-1.543 1.284-2.574 1.284M392.217 248.551c-12.689 4.82 14.666 6.399 43.152-1.859 16.8-4.87 31.67-13.45 30.167-18.067-1.502-4.616-70.142-38.795-49.015-16.085 18.306 19.678-5.366 28.817-24.304 36.011M484.158 186.309c-2.502-5.695.084-12.341 5.78-14.843 5.693-2.501 12.342.087 14.844 5.782 2.502 5.694-1.909 8.198-7.603 10.699-4.127 1.813-9.078 9.543-10.156 6.004-.341-1.125-2.175-6.075-2.865-7.642" clip-path="url(#b)" transform="translate(-132.81 -48.555) scale(.36668)" fill="#3e3e3e"/><path d="M463.15 236.327l-4.361-8.999c.084-.042 9.672-4.815 20.633-16.115 4.346-4.48 4.498-10.036 4.646-15.41.151-5.523.34-12.396 7.123-14.988l3.568 9.342c-.061.023-.086.039-.086.039-.466.644-.552 3.796-.609 5.882-.173 6.255-.408 14.823-7.465 22.097-12.281 12.662-22.999 17.934-23.449 18.152M422.15 232.712c-6.013-3.848-12.275-4.799-12.275-4.799s3.486 5.288 9.499 9.137c6.013 3.848 11.509 5.996 12.275 4.799.767-1.198-3.486-5.288-9.499-9.137" clip-path="url(#b)" transform="translate(-132.81 -48.555) scale(.36668)" fill="#3e3e3e"/><path d="M430.846 245.178c-2.319 0-6.258-1.229-13.089-5.601-6.475-4.144-10.231-9.774-10.387-10.012a3.002 3.002 0 0 1-.023-3.268 2.99 2.99 0 0 1 2.978-1.349c.281.043 6.967 1.094 13.442 5.238 3.069 1.964 5.823 4.069 7.754 5.927 1.247 1.198 4.557 4.382 2.655 7.354-.365.569-1.096 1.711-3.33 1.711M421.118 221.88c-7.788-4.984-15.489-6.856-15.489-6.856s4.925 6.209 12.713 11.194c7.788 4.984 14.723 8.053 15.489 6.855.767-1.197-4.925-6.209-12.713-11.193" clip-path="url(#b)" transform="translate(-132.81 -48.555) scale(.36668)" fill="#3e3e3e"/><path d="M433.122 236.328c-1.955 0-4.164-.978-5.617-1.621-3.061-1.355-6.889-3.472-10.78-5.962-8.117-5.195-13.233-11.587-13.447-11.856a3.002 3.002 0 0 1 3.059-4.78c.335.081 8.282 2.05 16.398 7.244 3.891 2.491 7.418 5.08 9.93 7.292 1.977 1.74 5.655 4.979 3.693 8.046-.778 1.215-1.952 1.637-3.236 1.637M418.911 209.502c-7.788-4.984-15.489-6.856-15.489-6.856s4.925 6.209 12.713 11.194c7.788 4.984 14.723 8.053 15.489 6.855.767-1.198-4.925-6.209-12.713-11.193" clip-path="url(#b)" transform="translate(-132.81 -48.555) scale(.36668)" fill="#3e3e3e"/><path d="M431.123 223.964c-2.527 0-7.261-1.618-16.605-7.598-8.117-5.194-13.233-11.586-13.447-11.856a3 3 0 0 1 3.059-4.779c.335.081 8.282 2.049 16.398 7.244 3.891 2.49 7.418 5.08 9.93 7.292 1.977 1.74 5.655 4.979 3.693 8.046-.427.667-1.058 1.651-3.028 1.651" clip-path="url(#b)" transform="translate(-132.81 -48.555) scale(.36668)" fill="#3e3e3e"/><path d="M419.253 200.372c-9.517-6.091-18.62-8.86-18.62-8.86s6.327 7.107 15.844 13.198c9.517 6.09 17.854 10.057 18.62 8.859.767-1.198-6.327-7.106-15.844-13.197" clip-path="url(#b)" transform="translate(-132.81 -48.555) scale(.36668)" fill="#3e3e3e"/><path d="M434.792 216.789c-2.689 0-8.111-1.987-19.932-9.552-9.754-6.242-16.198-13.426-16.468-13.729a3 3 0 0 1 3.114-4.865c.388.118 9.611 2.96 19.364 9.203 4.705 3.011 8.996 6.085 12.082 8.655 3.516 2.93 6.52 5.798 4.672 8.686-.452.706-1.026 1.602-2.832 1.602" clip-path="url(#b)" transform="translate(-132.81 -48.555) scale(.36668)" fill="#3e3e3e"/><path d="M420.618 191.633c-11.247-7.198-21.752-10.864-21.752-10.864s7.729 8.004 18.976 15.202c11.247 7.197 20.986 12.062 21.752 10.864.767-1.198-7.729-8.004-18.976-15.202" clip-path="url(#b)" transform="translate(-132.81 -48.555) scale(.36668)" fill="#3e3e3e"/><path d="M439.162 210.013c-2.053 0-4.755-1.23-7.854-2.778-4.2-2.098-9.557-5.201-15.083-8.738-11.412-7.304-19.192-15.307-19.517-15.644a3 3 0 0 1 3.146-4.917c.443.155 10.969 3.867 22.381 11.17 5.526 3.537 10.588 7.101 14.252 10.036 4.342 3.479 7.514 6.373 5.634 9.31-.709 1.108-1.715 1.561-2.959 1.561" clip-path="url(#b)" transform="translate(-132.81 -48.555) scale(.36668)" fill="#3e3e3e"/><path d="M414.617 177.053c-11.994-9.162-23.28-14.543-23.28-14.543s8.16 9.474 20.154 18.635c11.994 9.162 22.416 15.673 23.279 14.543.863-1.13-8.16-9.473-20.153-18.635" clip-path="url(#b)" transform="translate(-132.81 -48.555) scale(.36668)" fill="#3e3e3e"/><path d="M434.521 198.827c-2.169 0-5.094-1.687-8.807-4.006-4.474-2.795-10.172-6.805-16.046-11.292-12.102-9.244-20.263-18.664-20.605-19.06a3.002 3.002 0 0 1 3.564-4.666c.473.225 11.707 5.621 23.811 14.866 5.873 4.487 11.24 8.929 15.113 12.511 4.777 4.417 7.747 7.522 5.602 10.33-.7.918-1.576 1.317-2.632 1.317M416.222 156.909c-8.978-9.189-18.097-14.839-18.097-14.839s5.436 9.249 14.413 18.438c8.978 9.189 17.08 15.833 18.097 14.839 1.018-.994-5.435-9.249-14.413-18.438" clip-path="url(#b)" transform="translate(-132.81 -48.555) scale(.36668)" fill="#3e3e3e"/><path d="M430.418 178.475c-2.147 0-4.745-1.947-7.749-4.41-3.5-2.87-7.86-6.941-12.277-11.461-9.128-9.343-14.624-18.624-14.854-19.015a3.001 3.001 0 0 1 4.167-4.07c.384.239 9.535 5.95 18.663 15.293 4.416 4.521 8.384 8.975 11.172 12.541 3.329 4.259 5.678 7.709 3.192 10.139-.7.684-1.473.983-2.314.983" clip-path="url(#b)" transform="translate(-132.81 -48.555) scale(.36668)" fill="#3e3e3e"/><path d="M434.05 169.088c-12.627-19.634-25.029-34.158-25.029-34.158s8.071 17.31 20.698 36.944c12.627 19.634 23.832 34.927 25.028 34.157 1.196-.768-8.07-17.308-20.697-36.943" clip-path="url(#b)" transform="translate(-132.81 -48.555) scale(.36668)" fill="#3e3e3e"/><path d="M454.601 209.153c-2.251 0-4.812-3.012-10.501-10.775-4.763-6.5-10.766-15.336-16.905-24.881-12.591-19.578-20.811-37.123-20.893-37.299a3 3 0 0 1 5.001-3.215c.125.147 12.679 14.905 25.271 34.483 6.138 9.546 11.688 18.674 15.626 25.703 5.945 10.612 7.056 13.53 4.171 15.386-.603.388-1.177.598-1.77.598M448.124 175.802c-14.237-23.111-27.97-40.496-27.97-40.496s9.349 20.086 23.585 43.197c14.237 23.111 26.76 41.242 27.97 40.496 1.211-.746-9.348-20.086-23.585-43.197" clip-path="url(#b)" transform="translate(-132.81 -48.555) scale(.36668)" fill="#3e3e3e"/><path d="M471.61 222.066c-1.954 0-3.616-2.076-5.122-3.955-1.603-2.002-3.739-4.932-6.348-8.709-5.311-7.691-12.043-18.106-18.955-29.326-14.164-22.994-23.657-43.302-23.751-43.505a3 3 0 0 1 5.074-3.126c.139.176 14.006 17.788 28.17 40.783 6.912 11.221 13.185 21.918 17.664 30.121 2.2 4.029 3.856 7.255 4.923 9.588 1.276 2.789 2.721 5.95.018 7.616-.581.359-1.138.513-1.673.513" clip-path="url(#b)" transform="translate(-132.81 -48.555) scale(.36668)" fill="#3e3e3e"/><path d="M414.646 244.071c-5.044 3.024 16.518 2.344 32.531-4.692 16.014-7.036 22.185-13.115 24.733-16.385 2.983-3.83-43.312-54.37-37.492-23.904 2.17 11.358 8.48 28.04-19.772 44.981" clip-path="url(#b)" transform="translate(-132.81 -48.555) scale(.36668)" fill="#fff"/><path d="M418.161 250.793c-6.212.001-7.739-1.681-8.667-3.476-1.138-2.201-.815-5.498 2.581-7.534 22.93-13.75 20.328-26.011 18.032-36.83-.214-1.008-.42-1.984-.6-2.925-1.506-7.881-.035-12.899 4.372-14.915 4.718-2.159 10.781.213 19.649 7.691 5.714 4.818 12.283 11.63 17.143 17.778 5.501 6.959 8.113 11.723 5.183 15.485-4.851 6.228-13.823 12.247-26.665 17.889-8.879 3.901-18.143 5.551-22.875 6.188-3.37.453-6.035.649-8.153.649m20.757-55.974c.022.758.125 1.838.411 3.333.168.876.361 1.786.561 2.725 1.986 9.363 5.087 23.981-10.709 38.669 5.02-.933 10.764-2.451 15.986-4.745 11.771-5.172 17.956-9.737 21.204-13.065-1.731-2.837-6.166-8.613-12.566-15.051-7.059-7.101-12.247-10.688-14.887-11.866" clip-path="url(#b)" transform="translate(-132.81 -48.555) scale(.36668)" fill="#3e3e3e"/><path d="M490.627 180.644c.748 1.702 1.602-.605 3.303-1.353 1.701-.747 3.607.347 2.859-1.354a3.366 3.366 0 0 0-6.162 2.707" clip-path="url(#b)" transform="translate(-132.81 -48.555) scale(.36668)" fill="#fff"/><path d="M44.808 103.178h-.125c-.21-.028-.349-.153-.419-.376v-9.363c0-.14.05-.255.147-.346a.491.491 0 0 1 .344-.135c.132 0 .247.045.345.135.097.091.146.207.146.346v.982c.822-.975 1.874-1.463 3.156-1.463.78 0 1.494.198 2.142.595a4.221 4.221 0 0 1 1.516 1.579 4.361 4.361 0 0 1 1.547-1.579 4.036 4.036 0 0 1 2.131-.595c1.142 0 2.122.407 2.937 1.222.815.816 1.222 1.795 1.222 2.937v5.581a.46.46 0 0 1-.146.334.483.483 0 0 1-.355.146.449.449 0 0 1-.345-.146.475.475 0 0 1-.136-.334v-5.58a3.235 3.235 0 0 0-.961-2.248 3.005 3.005 0 0 0-2.216-.93c-.863 0-1.606.314-2.225.94-.62.628-.93 1.373-.93 2.237v5.644l-.022.041v.042a.405.405 0 0 1-.208.24.62.62 0 0 1-.293.094h-.104l-.167-.083c-.015 0-.046-.028-.095-.084a.758.758 0 0 1-.083-.105.328.328 0 0 1-.022-.052.144.144 0 0 0-.03-.053v-5.684a3.08 3.08 0 0 0-.92-2.247 3.028 3.028 0 0 0-2.237-.93c-.878 0-1.623.31-2.236.93-.614.62-.92 1.369-.92 2.247v5.58a.421.421 0 0 1-.23.398.28.28 0 0 1-.208.083M13.645 103.178h-.125c-.21-.028-.349-.153-.418-.376v-9.363a.45.45 0 0 1 .146-.346.491.491 0 0 1 .345-.135c.132 0 .247.045.345.135.097.091.146.207.146.346v.982c.822-.975 1.874-1.463 3.156-1.463.78 0 1.494.198 2.142.595a4.223 4.223 0 0 1 1.516 1.579 4.364 4.364 0 0 1 1.547-1.579 4.036 4.036 0 0 1 2.131-.595c1.143 0 2.122.407 2.937 1.222.815.816 1.222 1.795 1.222 2.937v5.581a.459.459 0 0 1-.146.334.483.483 0 0 1-.355.146.449.449 0 0 1-.345-.146.475.475 0 0 1-.136-.334v-5.58a3.237 3.237 0 0 0-.961-2.248 3.005 3.005 0 0 0-2.216-.93c-.864 0-1.606.314-2.226.94-.62.628-.93 1.373-.93 2.237v5.644l-.02.041v.042a.406.406 0 0 1-.21.24.62.62 0 0 1-.292.094h-.105l-.167-.083c-.014 0-.045-.028-.094-.084a.712.712 0 0 1-.083-.105.328.328 0 0 1-.022-.052.139.139 0 0 0-.03-.053v-5.684a3.08 3.08 0 0 0-.92-2.247 3.027 3.027 0 0 0-2.237-.93c-.878 0-1.623.31-2.236.93-.614.62-.92 1.369-.92 2.247v5.58a.421.421 0 0 1-.23.398.283.283 0 0 1-.209.083M39.917 102.676v-1.484a5.005 5.005 0 0 1-1.714 1.453 4.728 4.728 0 0 1-2.215.533c-1.38 0-2.55-.498-3.511-1.494-.961-.997-1.443-2.202-1.443-3.616 0-1.414.482-2.623 1.443-3.627.961-1.003 2.131-1.504 3.51-1.504.795 0 1.534.181 2.216.543.683.362 1.254.85 1.714 1.463V89.05c0-.14.052-.258.157-.355a.52.52 0 0 1 .721 0 .484.484 0 0 1 .147.355v13.627c0 .14-.05.258-.147.356a.52.52 0 0 1-.721 0 .467.467 0 0 1-.157-.356m-7.858-4.608c0 1.135.386 2.1 1.16 2.894.773.795 1.692 1.192 2.759 1.192 1.066 0 1.978-.38 2.737-1.14.76-.758 1.16-1.682 1.202-2.769v-.334c-.042-1.1-.442-2.034-1.202-2.8-.76-.767-1.671-1.15-2.737-1.15-1.067 0-1.986.4-2.76 1.201-.773.802-1.16 1.77-1.16 2.906M9.82 60.135c0 .511-.181.955-.545 1.33-.364.375-.824.562-1.381.562s-.904.069-1.04.205c-.091 0-.165.193-.221.58a7.908 7.908 0 0 0-.086 1.16v.476h1.024c.522 0 .965.183 1.33.546.362.364.545.802.545 1.313 0 .512-.183.955-.546 1.33a1.785 1.785 0 0 1-1.33.562H6.548v12.038c0 .524-.182.967-.545 1.33a1.808 1.808 0 0 1-1.33.546c-.523 0-.967-.182-1.33-.546a1.809 1.809 0 0 1-.546-1.33V68.2H1.91c-.524 0-.972-.181-1.348-.545A1.781 1.781 0 0 1 0 66.324c0-.523.188-.966.562-1.33a1.87 1.87 0 0 1 1.348-.546h.886v-.477c0-3.82 1.717-5.73 5.15-5.73.5 0 .938.189 1.313.564.374.375.562.819.562 1.33zM13.538 60.152c0-.523.182-.966.545-1.33a1.809 1.809 0 0 1 1.33-.546c.523 0 .972.182 1.348.546.374.364.562.807.562 1.33v20.12c0 .523-.188.966-.562 1.33a1.867 1.867 0 0 1-1.348.545c-.523 0-.966-.182-1.33-.546a1.807 1.807 0 0 1-.545-1.33v-20.12zM33.376 65.608a1.714 1.714 0 0 1 1.262-.512c.5 0 .932.176 1.296.529.363.352.545.779.545 1.279v12.89c0 2.273-.79 4.2-2.37 5.78s-3.507 2.37-5.78 2.37c-1.205 0-2.376-.284-3.512-.852-.478-.205-.796-.54-.955-1.007a1.908 1.908 0 0 1 .068-1.415c.227-.409.585-.693 1.074-.852.49-.16 1.007-.102 1.552.17.545.273 1.228.404 2.046.393.818-.012 1.62-.307 2.404-.887.785-.58 1.313-1.313 1.586-2.2-.955.546-2.035.819-3.24.819-1.955 0-3.632-.705-5.03-2.115-1.398-1.41-2.097-3.091-2.097-5.047v-8.047c0-.5.176-.927.528-1.28a1.741 1.741 0 0 1 1.279-.528c.5 0 .921.17 1.262.512.34.341.511.773.511 1.296v8.048c0 .977.347 1.801 1.04 2.472.694.67 1.53 1.006 2.507 1.006.977 0 1.807-.335 2.49-1.006.681-.67 1.022-1.495 1.022-2.472v-8.048c0-.523.172-.955.512-1.296zM46.632 82.01c-.387-.181-.608-.335-.664-.46a1.076 1.076 0 0 0-.12-.221c-.068-.023-.125-.114-.17-.273l-5.525-13.232a1.595 1.595 0 0 1-.017-1.346c.193-.444.529-.768 1.006-.972.41-.205.841-.205 1.296 0 .455.204.784.534.989.988l3.921 9.276 3.956-9.276c.182-.454.495-.784.938-.988.443-.204.898-.205 1.364 0 .466.204.796.528.99.972.192.443.187.892-.018 1.346l-5.593 13.232a.73.73 0 0 1-.136.238c-.046.046-.091.098-.136.154a1.99 1.99 0 0 1-.222.222c-.102.09-.176.165-.221.221a.357.357 0 0 1-.171.12h-.068v.033a.599.599 0 0 0-.273.069h-.069c-.09.023-.199.034-.323.034-.126 0-.234-.011-.324-.034h-.069a1.122 1.122 0 0 0-.272-.069v-.034h-.069zM73 73.178c0 .5-.165.904-.495 1.21-.33.308-.767.461-1.312.461H60.348c.205.978.591 1.728 1.16 2.251.727.841 1.79 1.348 3.188 1.518 1.398.17 2.609-.108 3.632-.836.341-.363.795-.545 1.364-.545.568 0 .966.148 1.194.443.636.705.636 1.444 0 2.217-1.638 1.5-3.644 2.245-6.02 2.233-2.375-.01-4.364-.846-5.967-2.506-1.602-1.659-2.416-3.66-2.438-6.002.023-2.34.836-4.347 2.438-6.018 1.603-1.672 3.54-2.507 5.814-2.507 2.273 0 4.189.745 5.746 2.234 1.557 1.489 2.405 3.382 2.541 5.678v.17zm-8.218-4.842c-1.32.068-2.376.477-3.172 1.228-.796.75-1.273 1.546-1.432 2.387h9.65c-.204-.796-.756-1.569-1.653-2.319-.899-.75-2.03-1.182-3.393-1.296z" fill="#3e3e3e"/></svg>