<svg xmlns="http://www.w3.org/2000/svg" xmlns:xlink="http://www.w3.org/1999/xlink" viewBox="0 0 128 179" height="179" width="128"><defs><path id="a" d="M7 0h960v560H7z"/><clipPath id="b"><use height="100%" width="100%" xlink:href="#a" overflow="visible"/></clipPath></defs><path clip-path="url(#b)" transform="matrix(.63504 0 0 .63504 -229.222 -83.782)" fill="#fff" d="M499.128 174.976L546 163.974l-46.806 20.565"/><path d="M499.999 186.37l-1.609-3.662 26.898-11.818-25.703 6.033-.914-3.895 46.872-11.002a2 2 0 1 1 1.262 3.779l-46.806 20.565zM448.756 275.962a1.99 1.99 0 0 1-.855-.193l-31.393-14.879a2.002 2.002 0 0 1-.595-3.183l24.539-25.904a2 2 0 0 1 2.904 2.751l-22.643 23.902 28.901 13.698a2 2 0 0 1-.858 3.808" clip-path="url(#b)" transform="matrix(.63504 0 0 .63504 -229.222 -83.782)" fill="#3e3e3e"/><path d="M452.478 283.815c-.491 0-.983-.18-1.37-.543l-25.5-23.972a2 2 0 0 1-.082-2.833l24.538-25.904a2.001 2.001 0 0 1 2.905 2.751l-23.159 24.447 24.038 22.597a2.001 2.001 0 0 1-1.37 3.457M417.095 168.307c-12.867-9.998-24.877-16.07-24.877-16.07s8.85 10.138 21.717 20.136c12.867 9.998 24.005 17.193 24.878 16.07.872-1.123-8.852-10.138-21.718-20.136" clip-path="url(#b)" transform="matrix(.63504 0 0 .63504 -229.222 -83.782)" fill="#3e3e3e"/><path d="M438.607 191.567c-2.225 0-5.283-1.833-9.363-4.469-4.771-3.081-10.86-7.469-17.15-12.356-12.946-10.061-21.767-20.11-22.136-20.532a3 3 0 0 1 3.613-4.651c.501.254 12.417 6.318 25.365 16.378 6.289 4.888 12.046 9.705 16.21 13.566 5.211 4.833 8.219 7.969 6.035 10.78-.691.89-1.543 1.284-2.574 1.284M392.217 248.551c-12.689 4.82 14.666 6.399 43.152-1.859 16.8-4.87 31.67-13.45 30.167-18.067-1.502-4.616-70.142-38.795-49.015-16.085 18.306 19.678-5.366 28.817-24.304 36.011M484.158 186.309c-2.502-5.695.084-12.341 5.78-14.843 5.693-2.501 12.342.087 14.844 5.782 2.502 5.694-1.909 8.198-7.603 10.699-4.127 1.813-9.078 9.543-10.156 6.004-.341-1.125-2.175-6.075-2.865-7.642" clip-path="url(#b)" transform="matrix(.63504 0 0 .63504 -229.222 -83.782)" fill="#3e3e3e"/><path d="M463.15 236.327l-4.361-8.999c.084-.042 9.672-4.815 20.633-16.115 4.346-4.48 4.498-10.036 4.646-15.41.151-5.523.34-12.396 7.123-14.988l3.568 9.342c-.061.023-.086.039-.086.039-.466.644-.552 3.796-.609 5.882-.173 6.255-.408 14.823-7.465 22.097-12.281 12.662-22.999 17.934-23.449 18.152M422.15 232.712c-6.013-3.848-12.275-4.799-12.275-4.799s3.486 5.288 9.499 9.137c6.013 3.848 11.509 5.996 12.275 4.799.767-1.198-3.486-5.288-9.499-9.137" clip-path="url(#b)" transform="matrix(.63504 0 0 .63504 -229.222 -83.782)" fill="#3e3e3e"/><path d="M430.846 245.178c-2.319 0-6.258-1.229-13.089-5.601-6.475-4.144-10.231-9.774-10.387-10.012a3.002 3.002 0 0 1-.023-3.268 2.99 2.99 0 0 1 2.978-1.349c.281.043 6.967 1.094 13.442 5.238 3.069 1.964 5.823 4.069 7.754 5.927 1.247 1.198 4.557 4.382 2.655 7.354-.365.569-1.096 1.711-3.33 1.711M421.118 221.88c-7.788-4.984-15.489-6.856-15.489-6.856s4.925 6.209 12.713 11.194c7.788 4.984 14.723 8.053 15.489 6.855.767-1.197-4.925-6.209-12.713-11.193" clip-path="url(#b)" transform="matrix(.63504 0 0 .63504 -229.222 -83.782)" fill="#3e3e3e"/><path d="M433.122 236.328c-1.955 0-4.164-.978-5.617-1.621-3.061-1.355-6.889-3.472-10.78-5.962-8.117-5.195-13.233-11.587-13.447-11.856a3.002 3.002 0 0 1 3.059-4.78c.335.081 8.282 2.05 16.398 7.244 3.891 2.491 7.418 5.08 9.93 7.292 1.977 1.74 5.655 4.979 3.693 8.046-.778 1.215-1.952 1.637-3.236 1.637M418.911 209.502c-7.788-4.984-15.489-6.856-15.489-6.856s4.925 6.209 12.713 11.194c7.788 4.984 14.723 8.053 15.489 6.855.767-1.198-4.925-6.209-12.713-11.193" clip-path="url(#b)" transform="matrix(.63504 0 0 .63504 -229.222 -83.782)" fill="#3e3e3e"/><path d="M431.123 223.964c-2.527 0-7.261-1.618-16.605-7.598-8.117-5.194-13.233-11.586-13.447-11.856a3 3 0 0 1 3.059-4.779c.335.081 8.282 2.049 16.398 7.244 3.891 2.49 7.418 5.08 9.93 7.292 1.977 1.74 5.655 4.979 3.693 8.046-.427.667-1.058 1.651-3.028 1.651" clip-path="url(#b)" transform="matrix(.63504 0 0 .63504 -229.222 -83.782)" fill="#3e3e3e"/><path d="M419.253 200.372c-9.517-6.091-18.62-8.86-18.62-8.86s6.327 7.107 15.844 13.198c9.517 6.09 17.854 10.057 18.62 8.859.767-1.198-6.327-7.106-15.844-13.197" clip-path="url(#b)" transform="matrix(.63504 0 0 .63504 -229.222 -83.782)" fill="#3e3e3e"/><path d="M434.792 216.789c-2.689 0-8.111-1.987-19.932-9.552-9.754-6.242-16.198-13.426-16.468-13.729a3 3 0 0 1 3.114-4.865c.388.118 9.611 2.96 19.364 9.203 4.705 3.011 8.996 6.085 12.082 8.655 3.516 2.93 6.52 5.798 4.672 8.686-.452.706-1.026 1.602-2.832 1.602" clip-path="url(#b)" transform="matrix(.63504 0 0 .63504 -229.222 -83.782)" fill="#3e3e3e"/><path d="M420.618 191.633c-11.247-7.198-21.752-10.864-21.752-10.864s7.729 8.004 18.976 15.202c11.247 7.197 20.986 12.062 21.752 10.864.767-1.198-7.729-8.004-18.976-15.202" clip-path="url(#b)" transform="matrix(.63504 0 0 .63504 -229.222 -83.782)" fill="#3e3e3e"/><path d="M439.162 210.013c-2.053 0-4.755-1.23-7.854-2.778-4.2-2.098-9.557-5.201-15.083-8.738-11.412-7.304-19.192-15.307-19.517-15.644a3 3 0 0 1 3.146-4.917c.443.155 10.969 3.867 22.381 11.17 5.526 3.537 10.588 7.101 14.252 10.036 4.342 3.479 7.514 6.373 5.634 9.31-.709 1.108-1.715 1.561-2.959 1.561" clip-path="url(#b)" transform="matrix(.63504 0 0 .63504 -229.222 -83.782)" fill="#3e3e3e"/><path d="M414.617 177.053c-11.994-9.162-23.28-14.543-23.28-14.543s8.16 9.474 20.154 18.635c11.994 9.162 22.416 15.673 23.279 14.543.863-1.13-8.16-9.473-20.153-18.635" clip-path="url(#b)" transform="matrix(.63504 0 0 .63504 -229.222 -83.782)" fill="#3e3e3e"/><path d="M434.521 198.827c-2.169 0-5.094-1.687-8.807-4.006-4.474-2.795-10.172-6.805-16.046-11.292-12.102-9.244-20.263-18.664-20.605-19.06a3.002 3.002 0 0 1 3.564-4.666c.473.225 11.707 5.621 23.811 14.866 5.873 4.487 11.24 8.929 15.113 12.511 4.777 4.417 7.747 7.522 5.602 10.33-.7.918-1.576 1.317-2.632 1.317M416.222 156.909c-8.978-9.189-18.097-14.839-18.097-14.839s5.436 9.249 14.413 18.438c8.978 9.189 17.08 15.833 18.097 14.839 1.018-.994-5.435-9.249-14.413-18.438" clip-path="url(#b)" transform="matrix(.63504 0 0 .63504 -229.222 -83.782)" fill="#3e3e3e"/><path d="M430.418 178.475c-2.147 0-4.745-1.947-7.749-4.41-3.5-2.87-7.86-6.941-12.277-11.461-9.128-9.343-14.624-18.624-14.854-19.015a3.001 3.001 0 0 1 4.167-4.07c.384.239 9.535 5.95 18.663 15.293 4.416 4.521 8.384 8.975 11.172 12.541 3.329 4.259 5.678 7.709 3.192 10.139-.7.684-1.473.983-2.314.983" clip-path="url(#b)" transform="matrix(.63504 0 0 .63504 -229.222 -83.782)" fill="#3e3e3e"/><path d="M434.05 169.088c-12.627-19.634-25.029-34.158-25.029-34.158s8.071 17.31 20.698 36.944c12.627 19.634 23.832 34.927 25.028 34.157 1.196-.768-8.07-17.308-20.697-36.943" clip-path="url(#b)" transform="matrix(.63504 0 0 .63504 -229.222 -83.782)" fill="#3e3e3e"/><path d="M454.601 209.153c-2.251 0-4.812-3.012-10.501-10.775-4.763-6.5-10.766-15.336-16.905-24.881-12.591-19.578-20.811-37.123-20.893-37.299a3 3 0 0 1 5.001-3.215c.125.147 12.679 14.905 25.271 34.483 6.138 9.546 11.688 18.674 15.626 25.703 5.945 10.612 7.056 13.53 4.171 15.386-.603.388-1.177.598-1.77.598M448.124 175.802c-14.237-23.111-27.97-40.496-27.97-40.496s9.349 20.086 23.585 43.197c14.237 23.111 26.76 41.242 27.97 40.496 1.211-.746-9.348-20.086-23.585-43.197" clip-path="url(#b)" transform="matrix(.63504 0 0 .63504 -229.222 -83.782)" fill="#3e3e3e"/><path d="M471.61 222.066c-1.954 0-3.616-2.076-5.122-3.955-1.603-2.002-3.739-4.932-6.348-8.709-5.311-7.691-12.043-18.106-18.955-29.326-14.164-22.994-23.657-43.302-23.751-43.505a3 3 0 0 1 5.074-3.126c.139.176 14.006 17.788 28.17 40.783 6.912 11.221 13.185 21.918 17.664 30.121 2.2 4.029 3.856 7.255 4.923 9.588 1.276 2.789 2.721 5.95.018 7.616-.581.359-1.138.513-1.673.513" clip-path="url(#b)" transform="matrix(.63504 0 0 .63504 -229.222 -83.782)" fill="#3e3e3e"/><path d="M414.646 244.071c-5.044 3.024 16.518 2.344 32.531-4.692 16.014-7.036 22.185-13.115 24.733-16.385 2.983-3.83-43.312-54.37-37.492-23.904 2.17 11.358 8.48 28.04-19.772 44.981" clip-path="url(#b)" transform="matrix(.63504 0 0 .63504 -229.222 -83.782)" fill="#fff"/><path d="M418.161 250.793c-6.212.001-7.739-1.681-8.667-3.476-1.138-2.201-.815-5.498 2.581-7.534 22.93-13.75 20.328-26.011 18.032-36.83-.214-1.008-.42-1.984-.6-2.925-1.506-7.881-.035-12.899 4.372-14.915 4.718-2.159 10.781.213 19.649 7.691 5.714 4.818 12.283 11.63 17.143 17.778 5.501 6.959 8.113 11.723 5.183 15.485-4.851 6.228-13.823 12.247-26.665 17.889-8.879 3.901-18.143 5.551-22.875 6.188-3.37.453-6.035.649-8.153.649m20.757-55.974c.022.758.125 1.838.411 3.333.168.876.361 1.786.561 2.725 1.986 9.363 5.087 23.981-10.709 38.669 5.02-.933 10.764-2.451 15.986-4.745 11.771-5.172 17.956-9.737 21.204-13.065-1.731-2.837-6.166-8.613-12.566-15.051-7.059-7.101-12.247-10.688-14.887-11.866" clip-path="url(#b)" transform="matrix(.63504 0 0 .63504 -229.222 -83.782)" fill="#3e3e3e"/><path d="M490.627 180.644c.748 1.702 1.602-.605 3.303-1.353 1.701-.747 3.607.347 2.859-1.354a3.366 3.366 0 0 0-6.162 2.707" clip-path="url(#b)" transform="matrix(.63504 0 0 .63504 -229.222 -83.782)" fill="#fff"/><path d="M78.388 179h-.217c-.362-.049-.604-.266-.724-.652v-16.216c0-.241.084-.44.253-.598a.85.85 0 0 1 .597-.235c.229 0 .428.08.597.235a.782.782 0 0 1 .253.598v1.701c1.424-1.689 3.245-2.534 5.466-2.534 1.35 0 2.587.344 3.71 1.032a7.311 7.311 0 0 1 2.624 2.733 7.553 7.553 0 0 1 2.68-2.733 6.99 6.99 0 0 1 3.69-1.032c1.979 0 3.675.706 5.087 2.118s2.117 3.108 2.117 5.086v9.665c0 .217-.084.41-.253.579a.837.837 0 0 1-.615.253.777.777 0 0 1-.597-.253.822.822 0 0 1-.235-.579v-9.665c-.05-1.52-.604-2.818-1.666-3.892-1.061-1.073-2.341-1.61-3.837-1.61s-2.781.543-3.854 1.629c-1.074 1.086-1.61 2.377-1.61 3.873v9.774l-.038.071v.073c-.048.17-.168.307-.36.416-.195.108-.363.163-.508.163h-.18l-.29-.145c-.025 0-.079-.048-.163-.145a1.312 1.312 0 0 1-.145-.181.568.568 0 0 1-.037-.091.249.249 0 0 0-.054-.09v-9.846c0-1.52-.532-2.818-1.593-3.891-1.063-1.074-2.353-1.61-3.873-1.61s-2.812.536-3.874 1.61c-1.062 1.073-1.592 2.37-1.592 3.891v9.665c0 .314-.134.543-.4.688a.484.484 0 0 1-.359.144M24.419 179h-.217c-.362-.049-.604-.266-.724-.652v-16.216c0-.241.083-.44.253-.598a.85.85 0 0 1 .597-.235c.23 0 .428.08.597.235a.784.784 0 0 1 .254.598v1.701c1.423-1.689 3.246-2.534 5.466-2.534 1.351 0 2.587.344 3.71 1.032a7.314 7.314 0 0 1 2.624 2.733 7.558 7.558 0 0 1 2.679-2.733 6.99 6.99 0 0 1 3.692-1.032c1.978 0 3.674.706 5.085 2.118 1.412 1.412 2.118 3.108 2.118 5.086v9.665c0 .217-.084.41-.253.579a.837.837 0 0 1-.615.253.777.777 0 0 1-.597-.253.822.822 0 0 1-.236-.579v-9.665c-.049-1.52-.604-2.818-1.665-3.892-1.062-1.073-2.341-1.61-3.837-1.61-1.497 0-2.782.543-3.855 1.629-1.074 1.086-1.61 2.377-1.61 3.873v9.774l-.038.071v.073c-.048.17-.168.307-.361.416-.194.108-.362.163-.507.163h-.18l-.29-.145c-.025 0-.08-.048-.164-.145a1.234 1.234 0 0 1-.144-.181.568.568 0 0 1-.037-.091.24.24 0 0 0-.054-.09v-9.846c0-1.52-.531-2.818-1.593-3.891-1.062-1.074-2.352-1.61-3.872-1.61s-2.812.536-3.873 1.61c-1.063 1.073-1.593 2.37-1.593 3.891v9.665c0 .314-.134.543-.399.688a.49.49 0 0 1-.361.144M69.918 178.13v-2.57a8.668 8.668 0 0 1-2.968 2.517 8.188 8.188 0 0 1-3.837.923c-2.389 0-4.416-.863-6.081-2.588-1.664-1.726-2.498-3.813-2.498-6.263 0-2.448.834-4.542 2.498-6.28 1.665-1.738 3.692-2.606 6.081-2.606 1.376 0 2.655.314 3.837.94a8.847 8.847 0 0 1 2.968 2.535V154.53a.81.81 0 0 1 .271-.615.901.901 0 0 1 .634-.254c.24 0 .447.085.616.254a.838.838 0 0 1 .254.615v23.6a.836.836 0 0 1-.254.616.837.837 0 0 1-.616.254.902.902 0 0 1-.634-.254.81.81 0 0 1-.27-.615m-13.611-7.982c0 1.967.67 3.638 2.01 5.013 1.338 1.376 2.93 2.064 4.777 2.064 1.846 0 3.426-.658 4.742-1.973 1.315-1.314 2.009-2.914 2.081-4.796v-.58c-.072-1.905-.766-3.523-2.081-4.85-1.316-1.327-2.896-1.991-4.742-1.991s-3.439.694-4.778 2.081c-1.339 1.389-2.009 3.066-2.009 5.032M17.795 104.454c0 .886-.315 1.654-.945 2.303-.63.65-1.427.975-2.392.975-.965 0-1.565.118-1.8.354-.16 0-.287.335-.384 1.005-.1.67-.148 1.338-.148 2.008v.826h1.772c.905 0 1.673.316 2.303.945.629.63.945 1.388.945 2.273 0 .887-.316 1.654-.945 2.304a3.09 3.09 0 0 1-2.303.974h-1.772v20.848c0 .906-.315 1.674-.945 2.303-.63.631-1.398.945-2.303.945-.906 0-1.674-.314-2.303-.945-.63-.629-.945-1.397-.945-2.303v-20.848H4.094a3.234 3.234 0 0 1-2.333-.945 3.085 3.085 0 0 1-.974-2.303c0-.906.325-1.673.974-2.303a3.238 3.238 0 0 1 2.333-.945H5.63v-.826c0-6.615 2.972-9.923 8.918-9.923.865 0 1.624.325 2.274.975.648.65.973 1.418.973 2.303zM24.233 104.484c0-.906.315-1.673.945-2.303.629-.63 1.397-.945 2.303-.945.905 0 1.683.315 2.333.945.649.63.974 1.397.974 2.303v34.844c0 .907-.325 1.675-.974 2.304-.65.63-1.428.944-2.333.944-.906 0-1.674-.315-2.303-.944-.63-.63-.945-1.397-.945-2.304v-34.844zM58.59 113.933c.591-.59 1.319-.886 2.186-.886.864 0 1.613.305 2.243.915.63.611.945 1.35.945 2.215v22.324c0 3.937-1.368 7.273-4.105 10.01s-6.073 4.105-10.01 4.105c-2.087 0-4.114-.492-6.083-1.476-.828-.355-1.379-.936-1.654-1.743-.276-.807-.236-1.624.119-2.45.393-.709 1.013-1.202 1.86-1.477.847-.276 1.743-.176 2.688.296.944.472 2.126.699 3.542.68 1.418-.021 2.806-.532 4.164-1.536 1.36-1.005 2.275-2.274 2.747-3.81-1.654.945-3.524 1.417-5.61 1.417-3.387 0-6.29-1.22-8.712-3.662-2.422-2.441-3.633-5.354-3.633-8.74v-13.938c0-.865.305-1.604.916-2.215a3.016 3.016 0 0 1 2.214-.915c.866 0 1.595.295 2.185.886.59.591.886 1.34.886 2.245v13.937c0 1.693.6 3.12 1.802 4.281 1.2 1.163 2.647 1.743 4.34 1.743s3.13-.58 4.311-1.743c1.182-1.16 1.772-2.588 1.772-4.281v-13.937c.001-.906.297-1.654.887-2.245zM81.548 142.34c-.67-.314-1.054-.58-1.151-.797-.099-.216-.169-.345-.207-.384-.119-.039-.217-.196-.295-.472l-9.568-22.915c-.354-.787-.364-1.565-.03-2.333.334-.768.916-1.329 1.743-1.683.709-.354 1.456-.354 2.244 0a3.31 3.31 0 0 1 1.712 1.712l6.792 16.065 6.85-16.065a3.079 3.079 0 0 1 1.625-1.712c.768-.353 1.555-.354 2.363 0 .807.355 1.378.915 1.712 1.683.334.768.326 1.546-.03 2.333l-9.685 22.915c-.08.198-.158.334-.236.413-.08.08-.158.168-.237.266-.079.098-.206.227-.383.384a3.56 3.56 0 0 0-.384.383.619.619 0 0 1-.295.207h-.118v.059c-.158 0-.316.039-.473.118h-.118c-.158.04-.345.06-.561.06a2.3 2.3 0 0 1-.561-.06h-.12c-.235-.078-.393-.118-.471-.118v-.06h-.118zM127.213 127.044c0 .866-.286 1.565-.857 2.096-.57.532-1.329.798-2.273.798h-18.78c.354 1.693 1.022 2.993 2.007 3.898 1.26 1.457 3.1 2.334 5.522 2.629 2.42.295 4.518-.187 6.29-1.447.59-.63 1.377-.945 2.362-.945.984 0 1.673.256 2.068.767 1.1 1.222 1.1 2.501 0 3.84-2.836 2.598-6.31 3.888-10.425 3.868-4.114-.02-7.56-1.466-10.334-4.34-2.776-2.874-4.185-6.339-4.223-10.395.039-4.055 1.447-7.53 4.223-10.424 2.775-2.894 6.13-4.34 10.069-4.34 3.936 0 7.254 1.289 9.95 3.868 2.697 2.579 4.165 5.857 4.401 9.833v.294zm-14.233-8.386c-2.284.118-4.115.826-5.493 2.126-1.378 1.299-2.205 2.678-2.48 4.134h16.714c-.355-1.378-1.31-2.716-2.864-4.016-1.556-1.299-3.515-2.046-5.877-2.244z" fill="#3e3e3e"/></svg>