<svg xmlns="http://www.w3.org/2000/svg" width="94" height="131" viewBox="0 0 94 131"><path d="M2.686 97.653c.018-.182.179-.342.342-.342h6.55c.182 0 .272.16.254.342l-.146 1.011c-.017.181-.16.343-.342.343H4.347l-.579 4.169h4.187c.162 0 .27.161.252.342l-.126.994c-.018.179-.199.342-.36.342H3.516l-.669 4.746c-.018.18-.178.342-.342.342H1.259c-.18 0-.29-.161-.252-.342l1.679-11.947zM13.056 97.653c.017-.182.18-.342.362-.342h1.263c.161 0 .287.16.27.342l-1.498 10.61h4.278c.179 0 .287.164.27.346l-.144.99c-.018.182-.181.343-.363.343H11.65c-.181 0-.29-.161-.272-.342l1.679-11.947zM22.562 103.86L19.64 97.78c-.091-.234.053-.468.304-.468h1.283c.2 0 .252.072.307.199l2.112 4.581h.035l3.465-4.581c.09-.109.18-.2.36-.2h1.426c.272 0 .325.235.164.469l-4.658 6.064-.81 5.757c-.02.18-.2.342-.363.342h-1.245c-.179 0-.29-.161-.27-.342l.81-5.74zM30.08 97.743c-.052-.233.056-.432.29-.432h1.372a.26.26 0 0 1 .254.199l2.11 8.59h.109l4.637-8.59c.053-.091.144-.2.307-.2h1.424c.237 0 .328.235.2.469l-6.714 12.145a.341.341 0 0 1-.307.2h-.161c-.126 0-.2-.091-.234-.2l-3.286-12.18zM43.538 97.653c.017-.182.181-.342.342-.342h6.552c.182 0 .27.16.252.342l-.144 1.011c-.017.181-.163.343-.342.343h-5l-.523 3.68h4.204c.164 0 .273.164.252.343l-.143 1.011c-.035.2-.181.343-.342.343H44.44l-.54 3.88h4.996c.164 0 .272.163.255.345l-.146.99c-.018.182-.179.343-.36.343h-6.532c-.181 0-.29-.161-.255-.342l1.679-11.947z" fill="#fff"/><path d="M55.498 97.401c.035-.146.16-.271.324-.271h.252c.146 0 .234.09.254.198l2.164 9.041h.055l4.781-9.04c.056-.109.146-.2.307-.2h.254c.126 0 .252.126.252.272l.252 12.126c0 .254-.126.416-.343.416h-1.225c-.164 0-.29-.126-.29-.36l.109-7.708h-.056l-4.113 8.05a.342.342 0 0 1-.308.199h-.289c-.143 0-.234-.09-.252-.2l-1.751-8.049h-.07l-2.167 7.78a.37.37 0 0 1-.342.288h-1.228c-.216 0-.325-.162-.251-.416l3.68-12.126zM69.602 97.653c.017-.182.178-.342.342-.342h3.771c2.834 0 4.89 2.561 4.89 5.503 0 3.917-2.904 7.128-6.659 7.128h-3.789c-.164 0-.272-.161-.234-.342l1.679-11.947zm2.362 10.575c2.526 0 4.637-2.292 4.637-5.342 0-2.201-1.315-3.862-3.336-3.862h-2.023l-1.298 9.204h2.02zM84.103 97.401c.037-.146.163-.271.324-.271h.254c.144 0 .234.09.252.198l2.167 9.041h.053l4.783-9.04c.052-.109.143-.2.307-.2h.251c.126 0 .255.126.255.272L93 109.527c0 .254-.126.416-.342.416H91.43c-.164 0-.29-.126-.29-.36l.109-7.708h-.053l-4.114 8.05a.347.347 0 0 1-.307.199h-.29c-.143 0-.233-.09-.25-.2l-1.752-8.049h-.073l-2.164 7.78a.375.375 0 0 1-.345.288h-1.226c-.216 0-.326-.162-.254-.416l3.682-12.126z" fill="#168784"/><path d="M71.875 72.915a3.514 3.514 0 0 1-3.512 3.516H23.904a3.514 3.514 0 0 1-3.514-3.516V28.46a3.514 3.514 0 0 1 3.514-3.516h44.458a3.514 3.514 0 0 1 3.512 3.516v44.456z" fill="#65c9c0"/><path d="M75.853 68.849a3.514 3.514 0 0 1-3.515 3.514H27.88a3.51 3.51 0 0 1-3.512-3.514V24.39c0-1.94 1.57-3.514 3.512-3.514h44.458a3.515 3.515 0 0 1 3.515 3.514V68.85z" fill="#168784"/><path d="M72.352 35.763a.535.535 0 0 0-.634-.351l-11.79 2.766a3.016 3.016 0 0 0-4.413 3.742c.017.035.035.084.057.13-.284.76-.31 1.637-.332 2.415-.04 1.441-.08 2.93-1.245 4.13-.45.465-.888.88-1.313 1.263a9.042 9.042 0 0 0-.308-.466 1.407 1.407 0 0 1-.028-.066c-.288-.625-.734-1.49-1.323-2.569-1.202-2.199-2.882-5.066-4.736-8.074-3.797-6.166-7.514-10.888-7.55-10.934a.804.804 0 0 0-1.358.837c.01.026.569 1.221 1.541 3.102-1.829-2.466-3.165-4.037-3.187-4.064a.803.803 0 0 0-1.34.862c.012.027.702 1.502 1.894 3.709-1.932-1.737-3.578-2.764-3.662-2.818a.805.805 0 0 0-1.118 1.091c.047.078.882 1.49 2.322 3.242-1.628-1.019-2.77-1.602-2.848-1.642a.806.806 0 0 0-.998.225.797.797 0 0 0 .027 1.02c.057.067.88 1.003 2.237 2.302-.888-.497-1.466-.776-1.52-.802a.805.805 0 1 0-.957 1.251c.083.094 1.784 2.058 4.402 4.217-.883-.385-1.456-.587-1.507-.606a.804.804 0 1 0-.844 1.319c.05.051.77.79 1.952 1.78-.39-.145-.634-.221-.668-.23a.804.804 0 1 0-.833 1.305c.044.049.712.793 1.824 1.747a7.326 7.326 0 0 0-.287-.08.806.806 0 0 0-.819 1.282c.045.06.949 1.19 2.444 2.354-.6-.209-.994-.306-1.033-.315a.796.796 0 0 0-.867.347.8.8 0 0 0 .047.932c.047.056.897 1.119 2.308 2.245-.243-.055-.399-.08-.418-.083a.806.806 0 0 0-.795 1.237c.04.056.788 1.178 2.101 2.196-.057.04-.113.082-.171.122-.184.12-.37.24-.571.36-1.576.945-3.578 1.714-5.42 2.412-2.659 1.01 1.24 1.488 6.72.593.079.002.15.009.235.009.346 0 .753-.023 1.213-.065l-1.815 1.918a.529.529 0 0 0-.135.467c.028.17.14.313.295.386l5.834 2.767 3.441 3.234a.545.545 0 0 0 .366.146.535.535 0 0 0 .368-.926L45.87 65.94a.538.538 0 0 0 .388-.294.535.535 0 0 0-.258-.713l-2.426-1.15-2.88-2.709 2.645-2.791a20.383 20.383 0 0 0 2.55-.908c1.954-.86 3.563-1.753 4.839-2.67 1.152-.713 3.082-2.071 5.187-4.244 1.891-1.95 1.957-4.244 2.003-5.923.013-.494.033-1.21.124-1.49.319-.287.651-.552.963-.69.654-.287 1.242-.574 1.651-.928l11.403-5.006a.538.538 0 0 0 .293-.662zM39.546 60.728a.533.533 0 0 0 .023.758l.847.799-2.16-1.025 2.213-2.336c.288-.049.609-.106.954-.176l-1.877 1.98zm10.734-9.1c-.018.016-.038.033-.054.05-.07.065-.146.132-.226.201l-.022.02c-.963.83-2.55 1.869-5.168 3.02-1.399.616-2.939 1.022-4.286 1.272 2.545-2.364 3.255-4.72 3.305-6.77.006-.216.004-.427-.003-.635-.003-.015-.003-.032-.003-.048a9.835 9.835 0 0 0-.045-.65c-.083-.835-.241-1.6-.382-2.263a24.367 24.367 0 0 1-.152-.73c-.075-.4-.104-.692-.11-.894.078.036.167.081.265.135.068.037.146.084.222.129a7.441 7.441 0 0 1 .396.253l.011.005c.764.517 1.81 1.367 3.097 2.66a41.187 41.187 0 0 1 .554.572c.136.142.262.28.388.417.049.052.1.107.149.157.114.13.226.255.334.38l.156.173a99.598 99.598 0 0 1 .443.524l.248.304.15.188c.07.088.138.175.201.259l.148.194a16.342 16.342 0 0 1 .305.422c.031.048.069.1.097.142.075.111.142.212.195.301-.065.07-.14.14-.213.212zm7.92-11.39c-.566.247-.848 1.01-1.097.449a1.12 1.12 0 0 1 .572-1.473 1.12 1.12 0 0 1 1.475.574c.247.562-.389.2-.95.45z" fill="#fff"/></svg>