<svg xmlns="http://www.w3.org/2000/svg" xmlns:xlink="http://www.w3.org/1999/xlink" viewBox="0 0 94 131" height="131" width="94"><defs><path id="a" d="M7 0h960v560H7z"/><clipPath id="b"><use height="100%" width="100%" xlink:href="#a" overflow="visible"/></clipPath></defs><path clip-path="url(#b)" transform="translate(-167.593 -61.315) scale(.46475)" fill="#fff" d="M499.128 174.976L546 163.974l-46.806 20.565"/><path d="M499.999 186.37l-1.609-3.662 26.898-11.818-25.703 6.033-.914-3.895 46.872-11.002a2 2 0 1 1 1.262 3.779l-46.806 20.565zM448.756 275.962a1.99 1.99 0 0 1-.855-.193l-31.393-14.879a2.002 2.002 0 0 1-.595-3.183l24.539-25.904a2 2 0 0 1 2.904 2.751l-22.643 23.902 28.901 13.698a2 2 0 0 1-.858 3.808" clip-path="url(#b)" transform="translate(-167.593 -61.315) scale(.46475)" fill="#3e3e3e"/><path d="M452.478 283.815c-.491 0-.983-.18-1.37-.543l-25.5-23.972a2 2 0 0 1-.082-2.833l24.538-25.904a2.001 2.001 0 0 1 2.905 2.751l-23.159 24.447 24.038 22.597a2.001 2.001 0 0 1-1.37 3.457M417.095 168.307c-12.867-9.998-24.877-16.07-24.877-16.07s8.85 10.138 21.717 20.136c12.867 9.998 24.005 17.193 24.878 16.07.872-1.123-8.852-10.138-21.718-20.136" clip-path="url(#b)" transform="translate(-167.593 -61.315) scale(.46475)" fill="#3e3e3e"/><path d="M438.607 191.567c-2.225 0-5.283-1.833-9.363-4.469-4.771-3.081-10.86-7.469-17.15-12.356-12.946-10.061-21.767-20.11-22.136-20.532a3 3 0 0 1 3.613-4.651c.501.254 12.417 6.318 25.365 16.378 6.289 4.888 12.046 9.705 16.21 13.566 5.211 4.833 8.219 7.969 6.035 10.78-.691.89-1.543 1.284-2.574 1.284M392.217 248.551c-12.689 4.82 14.666 6.399 43.152-1.859 16.8-4.87 31.67-13.45 30.167-18.067-1.502-4.616-70.142-38.795-49.015-16.085 18.306 19.678-5.366 28.817-24.304 36.011M484.158 186.309c-2.502-5.695.084-12.341 5.78-14.843 5.693-2.501 12.342.087 14.844 5.782 2.502 5.694-1.909 8.198-7.603 10.699-4.127 1.813-9.078 9.543-10.156 6.004-.341-1.125-2.175-6.075-2.865-7.642" clip-path="url(#b)" transform="translate(-167.593 -61.315) scale(.46475)" fill="#3e3e3e"/><path d="M463.15 236.327l-4.361-8.999c.084-.042 9.672-4.815 20.633-16.115 4.346-4.48 4.498-10.036 4.646-15.41.151-5.523.34-12.396 7.123-14.988l3.568 9.342c-.061.023-.086.039-.086.039-.466.644-.552 3.796-.609 5.882-.173 6.255-.408 14.823-7.465 22.097-12.281 12.662-22.999 17.934-23.449 18.152M422.15 232.712c-6.013-3.848-12.275-4.799-12.275-4.799s3.486 5.288 9.499 9.137c6.013 3.848 11.509 5.996 12.275 4.799.767-1.198-3.486-5.288-9.499-9.137" clip-path="url(#b)" transform="translate(-167.593 -61.315) scale(.46475)" fill="#3e3e3e"/><path d="M430.846 245.178c-2.319 0-6.258-1.229-13.089-5.601-6.475-4.144-10.231-9.774-10.387-10.012a3.002 3.002 0 0 1-.023-3.268 2.99 2.99 0 0 1 2.978-1.349c.281.043 6.967 1.094 13.442 5.238 3.069 1.964 5.823 4.069 7.754 5.927 1.247 1.198 4.557 4.382 2.655 7.354-.365.569-1.096 1.711-3.33 1.711M421.118 221.88c-7.788-4.984-15.489-6.856-15.489-6.856s4.925 6.209 12.713 11.194c7.788 4.984 14.723 8.053 15.489 6.855.767-1.197-4.925-6.209-12.713-11.193" clip-path="url(#b)" transform="translate(-167.593 -61.315) scale(.46475)" fill="#3e3e3e"/><path d="M433.122 236.328c-1.955 0-4.164-.978-5.617-1.621-3.061-1.355-6.889-3.472-10.78-5.962-8.117-5.195-13.233-11.587-13.447-11.856a3.002 3.002 0 0 1 3.059-4.78c.335.081 8.282 2.05 16.398 7.244 3.891 2.491 7.418 5.08 9.93 7.292 1.977 1.74 5.655 4.979 3.693 8.046-.778 1.215-1.952 1.637-3.236 1.637M418.911 209.502c-7.788-4.984-15.489-6.856-15.489-6.856s4.925 6.209 12.713 11.194c7.788 4.984 14.723 8.053 15.489 6.855.767-1.198-4.925-6.209-12.713-11.193" clip-path="url(#b)" transform="translate(-167.593 -61.315) scale(.46475)" fill="#3e3e3e"/><path d="M431.123 223.964c-2.527 0-7.261-1.618-16.605-7.598-8.117-5.194-13.233-11.586-13.447-11.856a3 3 0 0 1 3.059-4.779c.335.081 8.282 2.049 16.398 7.244 3.891 2.49 7.418 5.08 9.93 7.292 1.977 1.74 5.655 4.979 3.693 8.046-.427.667-1.058 1.651-3.028 1.651" clip-path="url(#b)" transform="translate(-167.593 -61.315) scale(.46475)" fill="#3e3e3e"/><path d="M419.253 200.372c-9.517-6.091-18.62-8.86-18.62-8.86s6.327 7.107 15.844 13.198c9.517 6.09 17.854 10.057 18.62 8.859.767-1.198-6.327-7.106-15.844-13.197" clip-path="url(#b)" transform="translate(-167.593 -61.315) scale(.46475)" fill="#3e3e3e"/><path d="M434.792 216.789c-2.689 0-8.111-1.987-19.932-9.552-9.754-6.242-16.198-13.426-16.468-13.729a3 3 0 0 1 3.114-4.865c.388.118 9.611 2.96 19.364 9.203 4.705 3.011 8.996 6.085 12.082 8.655 3.516 2.93 6.52 5.798 4.672 8.686-.452.706-1.026 1.602-2.832 1.602" clip-path="url(#b)" transform="translate(-167.593 -61.315) scale(.46475)" fill="#3e3e3e"/><path d="M420.618 191.633c-11.247-7.198-21.752-10.864-21.752-10.864s7.729 8.004 18.976 15.202c11.247 7.197 20.986 12.062 21.752 10.864.767-1.198-7.729-8.004-18.976-15.202" clip-path="url(#b)" transform="translate(-167.593 -61.315) scale(.46475)" fill="#3e3e3e"/><path d="M439.162 210.013c-2.053 0-4.755-1.23-7.854-2.778-4.2-2.098-9.557-5.201-15.083-8.738-11.412-7.304-19.192-15.307-19.517-15.644a3 3 0 0 1 3.146-4.917c.443.155 10.969 3.867 22.381 11.17 5.526 3.537 10.588 7.101 14.252 10.036 4.342 3.479 7.514 6.373 5.634 9.31-.709 1.108-1.715 1.561-2.959 1.561" clip-path="url(#b)" transform="translate(-167.593 -61.315) scale(.46475)" fill="#3e3e3e"/><path d="M414.617 177.053c-11.994-9.162-23.28-14.543-23.28-14.543s8.16 9.474 20.154 18.635c11.994 9.162 22.416 15.673 23.279 14.543.863-1.13-8.16-9.473-20.153-18.635" clip-path="url(#b)" transform="translate(-167.593 -61.315) scale(.46475)" fill="#3e3e3e"/><path d="M434.521 198.827c-2.169 0-5.094-1.687-8.807-4.006-4.474-2.795-10.172-6.805-16.046-11.292-12.102-9.244-20.263-18.664-20.605-19.06a3.002 3.002 0 0 1 3.564-4.666c.473.225 11.707 5.621 23.811 14.866 5.873 4.487 11.24 8.929 15.113 12.511 4.777 4.417 7.747 7.522 5.602 10.33-.7.918-1.576 1.317-2.632 1.317M416.222 156.909c-8.978-9.189-18.097-14.839-18.097-14.839s5.436 9.249 14.413 18.438c8.978 9.189 17.08 15.833 18.097 14.839 1.018-.994-5.435-9.249-14.413-18.438" clip-path="url(#b)" transform="translate(-167.593 -61.315) scale(.46475)" fill="#3e3e3e"/><path d="M430.418 178.475c-2.147 0-4.745-1.947-7.749-4.41-3.5-2.87-7.86-6.941-12.277-11.461-9.128-9.343-14.624-18.624-14.854-19.015a3.001 3.001 0 0 1 4.167-4.07c.384.239 9.535 5.95 18.663 15.293 4.416 4.521 8.384 8.975 11.172 12.541 3.329 4.259 5.678 7.709 3.192 10.139-.7.684-1.473.983-2.314.983" clip-path="url(#b)" transform="translate(-167.593 -61.315) scale(.46475)" fill="#3e3e3e"/><path d="M434.05 169.088c-12.627-19.634-25.029-34.158-25.029-34.158s8.071 17.31 20.698 36.944c12.627 19.634 23.832 34.927 25.028 34.157 1.196-.768-8.07-17.308-20.697-36.943" clip-path="url(#b)" transform="translate(-167.593 -61.315) scale(.46475)" fill="#3e3e3e"/><path d="M454.601 209.153c-2.251 0-4.812-3.012-10.501-10.775-4.763-6.5-10.766-15.336-16.905-24.881-12.591-19.578-20.811-37.123-20.893-37.299a3 3 0 0 1 5.001-3.215c.125.147 12.679 14.905 25.271 34.483 6.138 9.546 11.688 18.674 15.626 25.703 5.945 10.612 7.056 13.53 4.171 15.386-.603.388-1.177.598-1.77.598M448.124 175.802c-14.237-23.111-27.97-40.496-27.97-40.496s9.349 20.086 23.585 43.197c14.237 23.111 26.76 41.242 27.97 40.496 1.211-.746-9.348-20.086-23.585-43.197" clip-path="url(#b)" transform="translate(-167.593 -61.315) scale(.46475)" fill="#3e3e3e"/><path d="M471.61 222.066c-1.954 0-3.616-2.076-5.122-3.955-1.603-2.002-3.739-4.932-6.348-8.709-5.311-7.691-12.043-18.106-18.955-29.326-14.164-22.994-23.657-43.302-23.751-43.505a3 3 0 0 1 5.074-3.126c.139.176 14.006 17.788 28.17 40.783 6.912 11.221 13.185 21.918 17.664 30.121 2.2 4.029 3.856 7.255 4.923 9.588 1.276 2.789 2.721 5.95.018 7.616-.581.359-1.138.513-1.673.513" clip-path="url(#b)" transform="translate(-167.593 -61.315) scale(.46475)" fill="#3e3e3e"/><path d="M414.646 244.071c-5.044 3.024 16.518 2.344 32.531-4.692 16.014-7.036 22.185-13.115 24.733-16.385 2.983-3.83-43.312-54.37-37.492-23.904 2.17 11.358 8.48 28.04-19.772 44.981" clip-path="url(#b)" transform="translate(-167.593 -61.315) scale(.46475)" fill="#fff"/><path d="M418.161 250.793c-6.212.001-7.739-1.681-8.667-3.476-1.138-2.201-.815-5.498 2.581-7.534 22.93-13.75 20.328-26.011 18.032-36.83-.214-1.008-.42-1.984-.6-2.925-1.506-7.881-.035-12.899 4.372-14.915 4.718-2.159 10.781.213 19.649 7.691 5.714 4.818 12.283 11.63 17.143 17.778 5.501 6.959 8.113 11.723 5.183 15.485-4.851 6.228-13.823 12.247-26.665 17.889-8.879 3.901-18.143 5.551-22.875 6.188-3.37.453-6.035.649-8.153.649m20.757-55.974c.022.758.125 1.838.411 3.333.168.876.361 1.786.561 2.725 1.986 9.363 5.087 23.981-10.709 38.669 5.02-.933 10.764-2.451 15.986-4.745 11.771-5.172 17.956-9.737 21.204-13.065-1.731-2.837-6.166-8.613-12.566-15.051-7.059-7.101-12.247-10.688-14.887-11.866" clip-path="url(#b)" transform="translate(-167.593 -61.315) scale(.46475)" fill="#3e3e3e"/><path d="M490.627 180.644c.748 1.702 1.602-.605 3.303-1.353 1.701-.747 3.607.347 2.859-1.354a3.366 3.366 0 0 0-6.162 2.707" clip-path="url(#b)" transform="translate(-167.593 -61.315) scale(.46475)" fill="#fff"/><path d="M57.53 131h-.159c-.265-.036-.442-.195-.53-.477v-11.868c0-.176.062-.322.185-.437a.622.622 0 0 1 .437-.172c.168 0 .313.058.437.172a.572.572 0 0 1 .186.437v1.245c1.041-1.236 2.374-1.854 4-1.854.988 0 1.893.251 2.714.755a5.35 5.35 0 0 1 1.921 2 5.528 5.528 0 0 1 1.96-2 5.115 5.115 0 0 1 2.702-.755c1.448 0 2.69.516 3.723 1.55 1.033 1.033 1.55 2.274 1.55 3.722v7.073c0 .16-.063.3-.186.424a.613.613 0 0 1-.45.185.569.569 0 0 1-.437-.185.602.602 0 0 1-.172-.424v-7.073c-.036-1.113-.442-2.062-1.219-2.848-.777-.786-1.714-1.179-2.808-1.179-1.095 0-2.036.397-2.821 1.192-.786.795-1.179 1.74-1.179 2.835v7.153l-.027.052v.053a.514.514 0 0 1-.264.305.785.785 0 0 1-.371.119h-.132l-.212-.106c-.019 0-.058-.035-.12-.106a.96.96 0 0 1-.106-.133.415.415 0 0 1-.027-.066.182.182 0 0 0-.04-.067v-7.205c0-1.112-.388-2.062-1.165-2.848-.778-.785-1.722-1.178-2.835-1.178-1.112 0-2.057.393-2.834 1.178-.778.786-1.166 1.736-1.166 2.848v7.074c0 .23-.098.397-.292.503a.354.354 0 0 1-.263.106M18.033 131h-.16c-.264-.036-.441-.195-.53-.477v-11.868a.57.57 0 0 1 .186-.437.622.622 0 0 1 .437-.172c.168 0 .313.058.438.172a.574.574 0 0 1 .185.437v1.245c1.042-1.236 2.375-1.854 4-1.854.99 0 1.894.251 2.715.755a5.353 5.353 0 0 1 1.92 2 5.532 5.532 0 0 1 1.961-2 5.115 5.115 0 0 1 2.702-.755c1.448 0 2.69.516 3.722 1.55 1.033 1.033 1.55 2.274 1.55 3.722v7.073c0 .16-.062.3-.185.424a.613.613 0 0 1-.45.185.569.569 0 0 1-.438-.185.602.602 0 0 1-.172-.424v-7.073c-.036-1.113-.442-2.062-1.219-2.848-.777-.786-1.713-1.179-2.808-1.179-1.095 0-2.035.397-2.821 1.192-.786.795-1.179 1.74-1.179 2.835v7.153l-.027.052v.053a.515.515 0 0 1-.264.305.785.785 0 0 1-.371.119h-.132l-.212-.106c-.018 0-.058-.035-.12-.106a.903.903 0 0 1-.105-.133.415.415 0 0 1-.027-.066.176.176 0 0 0-.04-.067v-7.205c0-1.112-.389-2.062-1.166-2.848-.777-.785-1.721-1.178-2.834-1.178s-2.057.393-2.834 1.178c-.778.786-1.166 1.736-1.166 2.848v7.074c0 .23-.098.397-.292.503a.36.36 0 0 1-.264.106M51.331 130.364v-1.881a6.343 6.343 0 0 1-2.172 1.841 5.993 5.993 0 0 1-2.808.676c-1.748 0-3.232-.632-4.45-1.894-1.219-1.263-1.828-2.79-1.828-4.583 0-1.792.61-3.325 1.828-4.597 1.218-1.271 2.702-1.907 4.45-1.907 1.007 0 1.943.23 2.808.689a6.475 6.475 0 0 1 2.172 1.855v-7.471c0-.177.066-.327.199-.45a.66.66 0 0 1 .464-.186c.176 0 .326.062.45.185a.614.614 0 0 1 .186.45v17.273a.612.612 0 0 1-.186.45.612.612 0 0 1-.45.186.66.66 0 0 1-.464-.186.592.592 0 0 1-.199-.45m-9.96-5.842c0 1.44.49 2.663 1.47 3.67.98 1.006 2.145 1.51 3.497 1.51 1.351 0 2.507-.482 3.47-1.444.963-.962 1.47-2.133 1.523-3.51v-.424c-.053-1.395-.56-2.579-1.523-3.55-.963-.971-2.119-1.457-3.47-1.457-1.352 0-2.517.508-3.497 1.523-.98 1.016-1.47 2.243-1.47 3.682M13.185 76.444c0 .648-.23 1.21-.691 1.686-.461.475-1.045.713-1.751.713s-1.145.087-1.318.259c-.116 0-.21.245-.28.735-.073.49-.109.98-.109 1.47v.604h1.297c.662 0 1.224.232 1.686.692.46.461.69 1.016.69 1.664 0 .649-.23 1.21-.69 1.686a2.262 2.262 0 0 1-1.686.713H9.036v15.257c0 .663-.23 1.225-.691 1.686a2.292 2.292 0 0 1-1.686.691 2.29 2.29 0 0 1-1.685-.691 2.292 2.292 0 0 1-.692-1.686V86.666H3.158c-.663 0-1.231-.23-1.707-.692a2.258 2.258 0 0 1-.713-1.685c0-.663.238-1.225.713-1.686a2.37 2.37 0 0 1 1.707-.692h1.124v-.604c0-4.841 2.176-7.262 6.527-7.262.633 0 1.188.238 1.664.713.474.476.712 1.038.712 1.686zM17.897 76.466c0-.663.23-1.225.691-1.686a2.292 2.292 0 0 1 1.686-.691c.662 0 1.231.23 1.707.691a2.26 2.26 0 0 1 .713 1.686v25.5c0 .664-.238 1.226-.713 1.686a2.367 2.367 0 0 1-1.707.692c-.663 0-1.225-.23-1.686-.692a2.29 2.29 0 0 1-.691-1.686v-25.5zM43.041 83.381c.432-.432.965-.648 1.6-.648.632 0 1.18.223 1.641.67.46.446.692.987.692 1.62v16.338c0 2.881-1.002 5.323-3.004 7.326-2.004 2.003-4.445 3.004-7.326 3.004-1.528 0-3.011-.36-4.452-1.08-.606-.26-1.01-.685-1.21-1.275-.203-.591-.173-1.19.087-1.794.287-.519.74-.88 1.36-1.08.62-.203 1.276-.13 1.968.216.69.345 1.556.511 2.592.497 1.038-.015 2.054-.39 3.048-1.124.994-.735 1.664-1.664 2.01-2.788-1.21.692-2.58 1.037-4.106 1.037-2.479 0-4.604-.892-6.376-2.68-1.772-1.786-2.658-3.918-2.658-6.397v-10.2c0-.633.223-1.174.67-1.62.446-.447.986-.67 1.62-.67.634 0 1.168.216 1.6.648.432.433.648.98.648 1.643v10.2c0 1.239.439 2.284 1.318 3.133.88.85 1.938 1.275 3.177 1.275s2.291-.424 3.155-1.275c.865-.85 1.297-1.894 1.297-3.133v-10.2c0-.663.217-1.21.649-1.643zM59.842 104.17c-.49-.23-.77-.424-.842-.582a1.364 1.364 0 0 0-.151-.282c-.087-.028-.16-.143-.216-.345L51.63 86.19c-.26-.576-.267-1.146-.022-1.708.244-.561.67-.972 1.275-1.231.519-.26 1.066-.26 1.642 0 .576.26.994.677 1.253 1.253l4.97 11.757 5.015-11.757c.23-.576.627-.994 1.189-1.253.561-.26 1.137-.26 1.728 0s1.009.67 1.254 1.231c.244.562.238 1.132-.022 1.707l-7.088 16.77a.926.926 0 0 1-.173.303 2.431 2.431 0 0 0-.173.195 2.522 2.522 0 0 1-.28.28c-.13.116-.224.21-.282.281a.453.453 0 0 1-.216.151h-.086v.044a.76.76 0 0 0-.346.086h-.087a1.71 1.71 0 0 1-.41.044c-.16 0-.296-.014-.411-.044h-.087a1.422 1.422 0 0 0-.345-.086v-.044h-.087zM93.262 92.976c0 .634-.209 1.146-.627 1.534-.418.39-.973.584-1.664.584H77.227c.26 1.24.749 2.19 1.47 2.853.92 1.066 2.268 1.708 4.04 1.924 1.772.216 3.307-.137 4.603-1.06.433-.46 1.009-.69 1.73-.69.72 0 1.224.187 1.512.561.806.894.806 1.83 0 2.81-2.075 1.902-4.618 2.846-7.629 2.83-3.01-.013-5.532-1.072-7.563-3.176-2.031-2.103-3.062-4.639-3.09-7.607.028-2.967 1.059-5.51 3.09-7.628 2.031-2.119 4.487-3.177 7.37-3.177 2.88 0 5.308.944 7.282 2.83 1.973 1.888 3.047 4.287 3.22 7.197v.215zM82.846 86.84c-1.672.087-3.011.605-4.02 1.556-1.009.95-1.614 1.96-1.815 3.026h12.232c-.26-1.009-.959-1.988-2.097-2.94-1.138-.95-2.571-1.497-4.3-1.642z" fill="#3e3e3e"/></svg>