<svg xmlns="http://www.w3.org/2000/svg" width="60" height="60" viewBox="0 0 60 60"><path d="M48.97 49.377a2.807 2.807 0 0 1-2.804 2.807H10.66a2.806 2.806 0 0 1-2.807-2.807V13.872a2.807 2.807 0 0 1 2.807-2.808h35.505a2.807 2.807 0 0 1 2.805 2.808v35.505z" fill="#65c9c0"/><path d="M52.147 46.129a2.807 2.807 0 0 1-2.807 2.806H13.835a2.804 2.804 0 0 1-2.805-2.806V10.622a2.805 2.805 0 0 1 2.805-2.806H49.34a2.807 2.807 0 0 1 2.807 2.806V46.13z" fill="#168784"/><text style="line-height:125%;-inkscape-font-specification:FontAwesome" x="21.864" y="35.085" font-weight="400" font-size="40" font-family="FontAwesome" letter-spacing="0" word-spacing="0"/><g fill="#fff" font-weight="400" font-family="sans-serif" letter-spacing="0" word-spacing="0"><path d="M44.232 38.068q0 2.14-1.3 3.37-1.302 1.247-3.46 1.247h-15.58q-2.157 0-3.458-1.247-1.302-1.23-1.302-3.37 0-.945.054-1.836.071-.909.25-1.943.195-1.052.48-1.943.286-.891.767-1.73.482-.855 1.105-1.443.624-.606 1.516-.963.909-.356 1.996-.356.179 0 .767.392.588.374 1.301.855.713.464 1.908.856 1.194.374 2.406.374 1.213 0 2.407-.374 1.194-.392 1.907-.856.714-.48 1.302-.855.588-.392.766-.392 1.088 0 1.98.356.908.357 1.532.963.624.588 1.105 1.444.482.838.767 1.729.285.891.464 1.943.196 1.034.25 1.943.07.891.07 1.836z" style="line-height:125%"/><path d="M36.513 17.318q2.015 1.997 2.015 4.831 0 2.834-2.015 4.849-1.996 1.996-4.83 1.996-2.835 0-4.85-1.996-1.996-2.015-1.996-4.849t1.996-4.831q2.015-2.015 4.85-2.015 2.834 0 4.83 2.015z" style="line-height:125%"/></g></svg>